<mxfile host="app.diagrams.net" modified="2023-04-28T11:37:09.247Z" agent="Mozilla/5.0 (Windows NT 10.0; Win64; x64) AppleWebKit/537.36 (KHTML, like Gecko) Chrome/112.0.0.0 Safari/537.36" etag="uQXyHBb_fcSaY8IpsDZW" version="21.2.2" type="device">
  <diagram name="Page-1" id="0783ab3e-0a74-02c8-0abd-f7b4e66b4bec">
    <mxGraphModel dx="1050" dy="541" grid="1" gridSize="10" guides="1" tooltips="1" connect="1" arrows="1" fold="1" page="1" pageScale="1" pageWidth="300" pageHeight="1000" background="none" math="0" shadow="0">
      <root>
        <mxCell id="0" />
        <mxCell id="1" parent="0" />
        <mxCell id="wbuntGqTaFYtr3KhO8sW-3" value="" style="ellipse;html=1;shape=startState;fillColor=#000000;strokeColor=#ff0000;" parent="1" vertex="1">
          <mxGeometry x="65" y="10" width="30" height="30" as="geometry" />
        </mxCell>
        <mxCell id="wbuntGqTaFYtr3KhO8sW-4" value="" style="edgeStyle=orthogonalEdgeStyle;html=1;verticalAlign=bottom;endArrow=open;endSize=8;strokeColor=#ff0000;rounded=0;" parent="1" source="wbuntGqTaFYtr3KhO8sW-5" edge="1">
          <mxGeometry relative="1" as="geometry">
            <mxPoint x="80" y="100" as="targetPoint" />
          </mxGeometry>
        </mxCell>
        <mxCell id="wbuntGqTaFYtr3KhO8sW-6" value="" style="html=1;whiteSpace=wrap;aspect=fixed;shape=isoRectangle;" parent="1" vertex="1">
          <mxGeometry x="40" y="168" width="80" height="48" as="geometry" />
        </mxCell>
        <mxCell id="wbuntGqTaFYtr3KhO8sW-7" value="" style="endArrow=open;endFill=1;endSize=12;html=1;rounded=0;" parent="1" source="wbuntGqTaFYtr3KhO8sW-5" target="wbuntGqTaFYtr3KhO8sW-6" edge="1">
          <mxGeometry width="160" relative="1" as="geometry">
            <mxPoint x="-5" y="250" as="sourcePoint" />
            <mxPoint x="155" y="250" as="targetPoint" />
          </mxGeometry>
        </mxCell>
        <mxCell id="wbuntGqTaFYtr3KhO8sW-11" value="" style="endArrow=open;endFill=1;endSize=12;html=1;rounded=0;" parent="1" source="wbuntGqTaFYtr3KhO8sW-6" target="ZeUyT3zOJRw7scOufAu5-1" edge="1">
          <mxGeometry width="160" relative="1" as="geometry">
            <mxPoint x="245" y="330" as="sourcePoint" />
            <mxPoint x="255" y="222" as="targetPoint" />
          </mxGeometry>
        </mxCell>
        <mxCell id="wbuntGqTaFYtr3KhO8sW-12" value="Ist eigener Name" style="text;strokeColor=none;fillColor=none;align=left;verticalAlign=top;spacingLeft=4;spacingRight=4;overflow=hidden;rotatable=0;points=[[0,0.5],[1,0.5]];portConstraint=eastwest;whiteSpace=wrap;html=1;" parent="1" vertex="1">
          <mxGeometry x="120" y="160" width="160" height="26" as="geometry" />
        </mxCell>
        <mxCell id="wbuntGqTaFYtr3KhO8sW-14" value="" style="endArrow=open;endFill=1;endSize=12;html=1;rounded=0;" parent="1" source="wbuntGqTaFYtr3KhO8sW-6" target="YYj09JxXDIHpRSYv_sD0-2" edge="1">
          <mxGeometry width="160" relative="1" as="geometry">
            <mxPoint x="-5" y="250" as="sourcePoint" />
            <mxPoint x="80" y="250" as="targetPoint" />
          </mxGeometry>
        </mxCell>
        <mxCell id="wbuntGqTaFYtr3KhO8sW-33" value="Hole aktuelle Freunde von Benutzer1" style="ellipse;whiteSpace=wrap;html=1;" parent="1" vertex="1">
          <mxGeometry x="10" y="410" width="140" height="70" as="geometry" />
        </mxCell>
        <mxCell id="wbuntGqTaFYtr3KhO8sW-34" value="" style="endArrow=open;endFill=1;endSize=12;html=1;rounded=0;" parent="1" target="YYj09JxXDIHpRSYv_sD0-3" edge="1">
          <mxGeometry width="160" relative="1" as="geometry">
            <mxPoint x="80" y="298" as="sourcePoint" />
            <mxPoint x="80" y="350" as="targetPoint" />
          </mxGeometry>
        </mxCell>
        <mxCell id="wbuntGqTaFYtr3KhO8sW-45" value="" style="endArrow=open;endFill=1;endSize=12;html=1;rounded=0;" parent="1" source="YYj09JxXDIHpRSYv_sD0-16" target="YYj09JxXDIHpRSYv_sD0-20" edge="1">
          <mxGeometry width="160" relative="1" as="geometry">
            <mxPoint x="80" y="550" as="sourcePoint" />
            <mxPoint x="80" y="590" as="targetPoint" />
          </mxGeometry>
        </mxCell>
        <mxCell id="ZeUyT3zOJRw7scOufAu5-1" value="" style="ellipse;html=1;shape=endState;fillColor=#000000;strokeColor=#ff0000;" parent="1" vertex="1">
          <mxGeometry x="225" y="177" width="30" height="30" as="geometry" />
        </mxCell>
        <mxCell id="YYj09JxXDIHpRSYv_sD0-1" value="" style="edgeStyle=orthogonalEdgeStyle;html=1;verticalAlign=bottom;endArrow=open;endSize=8;strokeColor=#ff0000;rounded=0;" parent="1" source="wbuntGqTaFYtr3KhO8sW-3" target="wbuntGqTaFYtr3KhO8sW-5" edge="1">
          <mxGeometry relative="1" as="geometry">
            <mxPoint x="80" y="100" as="targetPoint" />
            <mxPoint x="80" y="40" as="sourcePoint" />
          </mxGeometry>
        </mxCell>
        <mxCell id="wbuntGqTaFYtr3KhO8sW-5" value="&lt;i&gt;send_friend_request&lt;/i&gt;&lt;br&gt;mit Benutzernamen&lt;br&gt;Bsp:Benutzer1 fragt Benutzer2 an" style="ellipse;whiteSpace=wrap;html=1;" parent="1" vertex="1">
          <mxGeometry y="60" width="160" height="80" as="geometry" />
        </mxCell>
        <mxCell id="YYj09JxXDIHpRSYv_sD0-2" value="Hole&lt;i&gt;&amp;nbsp;&lt;/i&gt;Daten aus &lt;i&gt;user:Benutzer2&lt;/i&gt;" style="ellipse;whiteSpace=wrap;html=1;" parent="1" vertex="1">
          <mxGeometry x="10" y="240" width="140" height="70" as="geometry" />
        </mxCell>
        <mxCell id="YYj09JxXDIHpRSYv_sD0-3" value="" style="html=1;whiteSpace=wrap;aspect=fixed;shape=isoRectangle;" parent="1" vertex="1">
          <mxGeometry x="40" y="340" width="80" height="48" as="geometry" />
        </mxCell>
        <mxCell id="YYj09JxXDIHpRSYv_sD0-5" value="" style="endArrow=open;endFill=1;endSize=12;html=1;rounded=0;" parent="1" source="YYj09JxXDIHpRSYv_sD0-3" target="YYj09JxXDIHpRSYv_sD0-10" edge="1">
          <mxGeometry width="160" relative="1" as="geometry">
            <mxPoint x="225" y="340" as="sourcePoint" />
            <mxPoint x="195" y="360" as="targetPoint" />
          </mxGeometry>
        </mxCell>
        <mxCell id="YYj09JxXDIHpRSYv_sD0-8" value="existiert nicht" style="text;strokeColor=none;fillColor=none;align=left;verticalAlign=top;spacingLeft=4;spacingRight=4;overflow=hidden;rotatable=0;points=[[0,0.5],[1,0.5]];portConstraint=eastwest;whiteSpace=wrap;html=1;" parent="1" vertex="1">
          <mxGeometry x="115" y="340" width="160" height="26" as="geometry" />
        </mxCell>
        <mxCell id="YYj09JxXDIHpRSYv_sD0-10" value="" style="ellipse;html=1;shape=endState;fillColor=#000000;strokeColor=#ff0000;" parent="1" vertex="1">
          <mxGeometry x="225" y="349" width="30" height="30" as="geometry" />
        </mxCell>
        <mxCell id="YYj09JxXDIHpRSYv_sD0-13" value="" style="endArrow=open;endFill=1;endSize=12;html=1;rounded=0;" parent="1" source="YYj09JxXDIHpRSYv_sD0-3" target="wbuntGqTaFYtr3KhO8sW-33" edge="1">
          <mxGeometry width="160" relative="1" as="geometry">
            <mxPoint x="90" y="308" as="sourcePoint" />
            <mxPoint x="90" y="350" as="targetPoint" />
          </mxGeometry>
        </mxCell>
        <mxCell id="YYj09JxXDIHpRSYv_sD0-14" value="" style="endArrow=open;endFill=1;endSize=12;html=1;rounded=0;" parent="1" source="wbuntGqTaFYtr3KhO8sW-33" target="YYj09JxXDIHpRSYv_sD0-16" edge="1">
          <mxGeometry width="160" relative="1" as="geometry">
            <mxPoint x="90" y="398" as="sourcePoint" />
            <mxPoint x="80" y="510" as="targetPoint" />
          </mxGeometry>
        </mxCell>
        <mxCell id="YYj09JxXDIHpRSYv_sD0-16" value="" style="html=1;whiteSpace=wrap;aspect=fixed;shape=isoRectangle;" parent="1" vertex="1">
          <mxGeometry x="40" y="510" width="80" height="48" as="geometry" />
        </mxCell>
        <mxCell id="YYj09JxXDIHpRSYv_sD0-17" value="" style="endArrow=open;endFill=1;endSize=12;html=1;rounded=0;" parent="1" source="YYj09JxXDIHpRSYv_sD0-16" target="YYj09JxXDIHpRSYv_sD0-18" edge="1">
          <mxGeometry width="160" relative="1" as="geometry">
            <mxPoint x="195" y="550" as="sourcePoint" />
            <mxPoint x="205" y="540" as="targetPoint" />
          </mxGeometry>
        </mxCell>
        <mxCell id="YYj09JxXDIHpRSYv_sD0-18" value="" style="ellipse;html=1;shape=endState;fillColor=#000000;strokeColor=#ff0000;" parent="1" vertex="1">
          <mxGeometry x="225" y="519" width="30" height="30" as="geometry" />
        </mxCell>
        <mxCell id="YYj09JxXDIHpRSYv_sD0-19" value="Sind bereits befreundet" style="text;strokeColor=none;fillColor=none;align=left;verticalAlign=top;spacingLeft=4;spacingRight=4;overflow=hidden;rotatable=0;points=[[0,0.5],[1,0.5]];portConstraint=eastwest;whiteSpace=wrap;html=1;" parent="1" vertex="1">
          <mxGeometry x="95" y="500" width="160" height="26" as="geometry" />
        </mxCell>
        <mxCell id="YYj09JxXDIHpRSYv_sD0-20" value="Hole Freundschaftsanfragen an Benutzer2" style="ellipse;whiteSpace=wrap;html=1;" parent="1" vertex="1">
          <mxGeometry x="10" y="580" width="140" height="70" as="geometry" />
        </mxCell>
        <mxCell id="YYj09JxXDIHpRSYv_sD0-21" value="" style="html=1;whiteSpace=wrap;aspect=fixed;shape=isoRectangle;" parent="1" vertex="1">
          <mxGeometry x="40" y="670" width="80" height="48" as="geometry" />
        </mxCell>
        <mxCell id="YYj09JxXDIHpRSYv_sD0-22" value="" style="endArrow=open;endFill=1;endSize=12;html=1;rounded=0;" parent="1" source="YYj09JxXDIHpRSYv_sD0-20" target="YYj09JxXDIHpRSYv_sD0-21" edge="1">
          <mxGeometry width="160" relative="1" as="geometry">
            <mxPoint x="85" y="610" as="sourcePoint" />
            <mxPoint x="80" y="680" as="targetPoint" />
          </mxGeometry>
        </mxCell>
        <mxCell id="YYj09JxXDIHpRSYv_sD0-23" value="" style="endArrow=open;endFill=1;endSize=12;html=1;rounded=0;" parent="1" source="YYj09JxXDIHpRSYv_sD0-21" target="YYj09JxXDIHpRSYv_sD0-24" edge="1">
          <mxGeometry width="160" relative="1" as="geometry">
            <mxPoint x="130" y="544" as="sourcePoint" />
            <mxPoint x="245" y="680" as="targetPoint" />
          </mxGeometry>
        </mxCell>
        <mxCell id="YYj09JxXDIHpRSYv_sD0-24" value="" style="ellipse;html=1;shape=endState;fillColor=#000000;strokeColor=#ff0000;" parent="1" vertex="1">
          <mxGeometry x="250" y="679" width="30" height="30" as="geometry" />
        </mxCell>
        <mxCell id="YYj09JxXDIHpRSYv_sD0-25" value="Bereits Freundschaftsanfrage gesendet" style="text;strokeColor=none;fillColor=none;align=left;verticalAlign=top;spacingLeft=4;spacingRight=4;overflow=hidden;rotatable=0;points=[[0,0.5],[1,0.5]];portConstraint=eastwest;whiteSpace=wrap;html=1;" parent="1" vertex="1">
          <mxGeometry x="105" y="650" width="190" height="40" as="geometry" />
        </mxCell>
        <mxCell id="YYj09JxXDIHpRSYv_sD0-26" value="Speichere Freundschaftsanfrage in Benutzer2" style="ellipse;whiteSpace=wrap;html=1;" parent="1" vertex="1">
          <mxGeometry x="10" y="740" width="140" height="70" as="geometry" />
        </mxCell>
        <mxCell id="YYj09JxXDIHpRSYv_sD0-27" value="" style="endArrow=open;endFill=1;endSize=12;html=1;rounded=0;" parent="1" source="YYj09JxXDIHpRSYv_sD0-21" target="YYj09JxXDIHpRSYv_sD0-26" edge="1">
          <mxGeometry width="160" relative="1" as="geometry">
            <mxPoint x="90" y="660" as="sourcePoint" />
            <mxPoint x="90" y="680" as="targetPoint" />
          </mxGeometry>
        </mxCell>
        <mxCell id="YYj09JxXDIHpRSYv_sD0-28" value="" style="endArrow=open;endFill=1;endSize=12;html=1;rounded=0;" parent="1" source="YYj09JxXDIHpRSYv_sD0-26" target="YYj09JxXDIHpRSYv_sD0-29" edge="1">
          <mxGeometry width="160" relative="1" as="geometry">
            <mxPoint x="130" y="704" as="sourcePoint" />
            <mxPoint x="80" y="840" as="targetPoint" />
          </mxGeometry>
        </mxCell>
        <mxCell id="YYj09JxXDIHpRSYv_sD0-29" value="Sende Event der Freundschaftsanfrage an Benutzer2" style="ellipse;whiteSpace=wrap;html=1;" parent="1" vertex="1">
          <mxGeometry x="10" y="830" width="140" height="70" as="geometry" />
        </mxCell>
        <mxCell id="YYj09JxXDIHpRSYv_sD0-30" value="" style="ellipse;html=1;shape=endState;fillColor=#000000;strokeColor=#ff0000;" parent="1" vertex="1">
          <mxGeometry x="65" y="930" width="30" height="30" as="geometry" />
        </mxCell>
        <mxCell id="YYj09JxXDIHpRSYv_sD0-31" value="" style="endArrow=open;endFill=1;endSize=12;html=1;rounded=0;" parent="1" source="YYj09JxXDIHpRSYv_sD0-29" target="YYj09JxXDIHpRSYv_sD0-30" edge="1">
          <mxGeometry width="160" relative="1" as="geometry">
            <mxPoint x="90" y="820" as="sourcePoint" />
            <mxPoint x="90" y="850" as="targetPoint" />
          </mxGeometry>
        </mxCell>
      </root>
    </mxGraphModel>
  </diagram>
</mxfile>
